#!OML:ASF I:\Actors\actors\Patient Classification 2\Patient 1\Session 1\actor1.ASF
:FULLY-SPECIFIED
:DEGREES
239
root -0.579386 18.8358 5.30204 23.2519 -0.788598 -0.613776
lowerback 25.858 0.206663 0.266094
upperback 3.93171 0.37183 0.336808
thorax -10.0098 0.167889 0.098198
lowerneck -5.3818 -9.86209 -7.68973
upperneck -5.40979 -12.6992 9.0354
head 0.358638 -6.30308 3.90346
rclavicle -5.06901e-015 -2.6339e-015
rhumerus 2.50612 29.8475 -71.1802
rradius 41.4274
rwrist 11.0565
rhand -30.4697 -37.2115
rfingers 7.12502
rthumb -3.77105 -67.1579
lclavicle -5.06901e-015 -2.6339e-015
lhumerus 8.17072 -19.898 78.0287
lradius 37.7187
lwrist -19.4232
lhand -23.0551 -47.0986
lfingers 7.12502
lthumb 3.38991 -17.1458
rfemur -24.7986 1.44532 13.006
rtibia 11.4183
rfoot -19.6065 -15.2459
rtoes -4.55593
lfemur -35.5691 0.257473 -13.0314
ltibia 28.4046
lfoot -16.6517 8.77365
ltoes -55.8386
240
root -0.581627 18.8345 5.29864 23.2805 -0.784548 -0.598061
lowerback 25.8773 0.206634 0.260124
upperback 3.92929 0.36875 0.323106
thorax -10.0225 0.1664 0.0873129
lowerneck -5.49586 -9.79514 -7.62152
upperneck -5.06839 -12.619 8.95345
head 0.471788 -6.25842 3.85132
rclavicle -4.67144e-015 -5.56597e-015
rhumerus 2.53656 29.8193 -71.1542
rradius 41.4354
rwrist 11.0108
rhand -28.8463 -36.0993
rfingers 7.12502
rthumb -2.20322 -66.0677
lclavicle -4.67144e-015 -5.56597e-015
lhumerus 8.2239 -19.9074 77.9922
lradius 37.7091
lwrist -19.4172
lhand -22.9811 -47.2509
lfingers 7.12502
lthumb 3.46132 -17.2992
rfemur -24.895 1.40334 13.0052
rtibia 11.5209
rfoot -19.63 -15.206
rtoes -4.59599
lfemur -35.6331 0.278595 -13.0478
ltibia 28.4306
lfoot -16.6203 8.75794
ltoes -55.8742
241
root -0.583118 18.8335 5.2953 23.2812 -0.772394 -0.578547
lowerback 25.9319 0.214267 0.25767
upperback 3.93518 0.377616 0.318691
thorax -10.0443 0.170483 0.0806553
lowerneck -5.47174 -9.68508 -7.6768
upperneck -4.79577 -12.4796 9.0187
head 0.554075 -6.18551 3.88487
rclavicle -4.72114e-015 -1.59028e-015
rhumerus 2.584 29.8089 -71.0701
rradius 41.4525
rwrist 10.9324
rhand -31.0813 -37.8464
rfingers 7.12502
rthumb -4.3616 -67.7815
lclavicle -4.72114e-015 -1.59028e-015
lhumerus 8.26678 -19.9391 77.9793
lradius 37.7069
lwrist -19.4063
lhand -22.949 -47.3492
lfingers 7.12502
lthumb 3.49232 -17.3981
rfemur -24.9529 1.29473 13.0263
rtibia 11.6128
rfoot -19.5749 -15.1192
rtoes -4.68237
lfemur -35.6651 0.287817 -13.0685
ltibia 28.4593
lfoot -16.5982 8.74298
ltoes -55.9316
242
root -0.583431 18.8335 5.29225 23.2866 -0.757043 -0.567015
lowerback 25.9855 0.223304 0.284405
upperback 3.94971 0.395855 0.311684
thorax -10.0555 0.177821 0.0511342
lowerneck -5.52185 -9.52597 -7.67945
upperneck -4.41636 -12.277 9.06106
head 0.673202 -6.07909 3.89847
rclavicle 9.93923e-016 1.14301e-015
rhumerus 2.6765 29.8077 -70.9612
rradius 41.4321
rwrist 10.8255
rhand -31.6895 -38.227
rfingers 7.12502
rthumb -4.94896 -68.1492
lclavicle 9.93923e-016 1.14301e-015
lhumerus 8.32572 -20.0028 77.9538
lradius 37.722
lwrist -19.3414
lhand -22.9339 -47.3873
lfingers 7.12502
lthumb 3.50696 -17.4364
rfemur -25.005 1.23278 13.0382
rtibia 11.688
rfoot -19.5308 -15.0889
rtoes -4.77874
lfemur -35.7039 0.288037 -13.0794
ltibia 28.491
lfoot -16.6055 8.73519
ltoes -55.9362
243
root -0.583811 18.8346 5.28933 23.2937 -0.734305 -0.565008
lowerback 26.0471 0.226146 0.343155
upperback 3.9638 0.413478 0.291822
thorax -10.071 0.18346 -0.0110384
lowerneck -5.73642 -9.38106 -7.50426
upperneck -3.84802 -12.1018 8.93568
head 0.859708 -5.98348 3.80847
rclavicle -2.18663e-015 -1.19271e-015
rhumerus 2.74486 29.7573 -70.9032
rradius 41.4038
rwrist 10.7597
rhand -30.9427 -37.4295
rfingers 7.12502
rthumb -4.22778 -67.3673
lclavicle -2.18663e-015 -1.19271e-015
lhumerus 8.39286 -20.1444 77.8702
lradius 37.7641
lwrist -19.1964
lhand -22.9133 -47.4333
lfingers 7.12502
lthumb 3.52683 -17.4827
rfemur -25.061 1.23067 13.0362
rtibia 11.7745
rfoot -19.5773 -15.0849
rtoes -4.69013
lfemur -35.7466 0.31164 -13.0882
ltibia 28.5222
lfoot -16.6113 8.70991
ltoes -55.879
244
root -0.58497 18.8349 5.2853 23.3349 -0.729765 -0.559431
lowerback 26.0889 0.230739 0.388546
upperback 3.96125 0.42872 0.263236
thorax -10.095 0.18826 -0.074455
lowerneck -5.86509 -9.25161 -7.41195
upperneck -3.41008 -11.9439 8.94202
head 1.00661 -5.89797 3.78628
rclavicle -2.23633e-015 1.2921e-015
rhumerus 2.7255 29.6104 -70.9109
rradius 41.4488
rwrist 10.9222
rhand -28.6106 -35.0445
rfingers 7.12502
rthumb -1.97559 -65.0151
lclavicle -2.23633e-015 1.2921e-015
lhumerus 8.47612 -20.3041 77.7523
lradius 37.7808
lwrist -19.0848
lhand -22.9711 -47.514
lfingers 7.12502
lthumb 3.47098 -17.5625
rfemur -25.1789 1.2098 13.0334
rtibia 11.8927
rfoot -19.6169 -15.0359
rtoes -4.48357
lfemur -35.825 0.353991 -13.105
ltibia 28.545
lfoot -16.5904 8.68633
ltoes -55.8463
245
root -0.586927 18.8333 5.27975 23.3886 -0.794765 -0.520928
lowerback 26.1314 0.265151 0.324377
upperback 3.96833 0.453291 0.245814
thorax -10.1093 0.201501 -0.0654599
lowerneck -6.0341 -9.08365 -7.40488
upperneck -2.97075 -11.7282 8.99342
head 1.16602 -5.78122 3.7976
rclavicle 3.23025e-015 1.98785e-015
rhumerus 2.75059 29.4877 -70.868
rradius 41.5146
rwrist 11.1125
rhand -29.3178 -36.0295
rfingers 7.12502
rthumb -2.65867 -65.9927
lclavicle 3.23025e-015 1.98785e-015
lhumerus 8.59956 -20.3739 77.6697
lradius 37.7748
lwrist -19.0785
lhand -23.0612 -47.6225
lfingers 7.12502
lthumb 3.38396 -17.6696
rfemur -25.3378 1.25299 12.9654
rtibia 12.025
rfoot -19.6381 -15.0076
rtoes -4.35804
lfemur -35.9112 0.395686 -13.1603
ltibia 28.5615
lfoot -16.5684 8.70348
ltoes -55.8496
246
root -0.589908 18.8316 5.27358 23.4095 -0.863851 -0.468468
lowerback 26.2208 0.308219 0.204405
upperback 3.99753 0.476114 0.250276
thorax -10.1237 0.216348 0.000547148
lowerneck -6.34848 -8.88542 -7.26952
upperneck -2.41683 -11.4759 8.88006
head 1.36457 -5.64356 3.72375
rclavicle -2.6339e-015 -1.2424e-015
rhumerus 2.86153 29.5202 -70.7409
rradius 41.5457
rwrist 10.9187
rhand -28.9995 -35.6739
rfingers 7.12502
rthumb -2.35119 -65.6407
lclavicle -2.6339e-015 -1.2424e-015
lhumerus 8.7326 -20.419 77.6056
lradius 37.8208
lwrist -19.0283
lhand -23.012 -47.6515
lfingers 7.12502
lthumb 3.4315 -17.6993
rfemur -25.4664 1.29127 12.8914
rtibia 12.1624
rfoot -19.6501 -14.9946
rtoes -4.49566
lfemur -35.9605 0.422105 -13.2214
ltibia 28.5818
lfoot -16.5511 8.71296
ltoes -55.8518
247
root -0.593727 18.8307 5.26797 23.4555 -0.873135 -0.481774
lowerback 26.2726 0.325939 0.168698
upperback 4.015 0.491267 0.270191
thorax -10.1313 0.224956 0.0380401
lowerneck -6.55488 -8.67655 -7.18909
upperneck -1.95514 -11.2103 8.87465
head 1.52558 -5.50104 3.70629
rclavicle -8.44835e-016 2.38542e-015
rhumerus 2.96111 29.5764 -70.6276
rradius 41.5467
rwrist 10.6615
rhand -28.6751 -35.2613
rfingers 7.12502
rthumb -2.0379 -65.2313
lclavicle -8.44835e-016 2.38542e-015
lhumerus 8.82118 -20.4771 77.5279
lradius 37.9225
lwrist -18.9022
lhand -22.887 -47.615
lfingers 7.12502
lthumb 3.55224 -17.6648
rfemur -25.6132 1.28889 12.9186
rtibia 12.299
rfoot -19.6662 -14.9746
rtoes -4.68134
lfemur -36.0413 0.457673 -13.1966
ltibia 28.6075
lfoot -16.5299 8.6813
ltoes -55.8218
248
root -0.596807 18.83 5.26217 23.5419 -0.835683 -0.567292
lowerback 26.2616 0.309859 0.20956
upperback 3.99029 0.484937 0.295795
thorax -10.1535 0.221004 0.0452918
lowerneck -6.45888 -8.44077 -7.19432
upperneck -1.6656 -10.9156 9.0449
head 1.59271 -5.34979 3.78409
rclavicle 8.00108e-015 3.62782e-015
rhumerus 2.97758 29.6377 -70.622
rradius 41.5217
rwrist 10.6591
rhand -28.5773 -35.3604
rfingers 7.12502
rthumb -1.94344 -65.3313
lclavicle 8.00108e-015 3.62782e-015
lhumerus 8.83221 -20.4617 77.4652
lradius 37.9709
lwrist -18.8288
lhand -22.8534 -47.6198
lfingers 7.12502
lthumb 3.58468 -17.6702
rfemur -25.7823 1.32095 13.0157
rtibia 12.405
rfoot -19.7017 -14.9883
rtoes -4.65225
lfemur -36.1804 0.493673 -13.0856
ltibia 28.6449
lfoot -16.5227 8.65633
ltoes -55.7646
249
root -0.598635 18.8298 5.25619 23.6203 -0.801809 -0.636899
lowerback 26.2534 0.283265 0.231541
upperback 3.95523 0.458974 0.312043
thorax -10.1889 0.208454 0.0596141
lowerneck -6.29347 -8.19653 -7.05212
upperneck -1.44763 -10.6185 9.12227
head 1.60614 -5.20107 3.80686
rclavicle 3.57812e-015 4.62174e-015
rhumerus 2.94371 29.7611 -70.6874
rradius 41.5154
rwrist 10.8129
rhand -28.6711 -35.5257
rfingers 7.12502
rthumb -2.03405 -65.4958
lclavicle 3.57812e-015 4.62174e-015
lhumerus 8.83892 -20.425 77.3892
lradius 37.9489
lwrist -18.8273
lhand -22.8882 -47.6285
lfingers 7.12502
lthumb 3.55105 -17.6783
rfemur -25.9231 1.29817 13.1114
rtibia 12.4757
rfoot -19.6702 -15.0016
rtoes -4.7197
lfemur -36.3229 0.481041 -12.9839
ltibia 28.6992
lfoot -16.5168 8.69365
ltoes -55.776
250
root -0.599656 18.829 5.25106 23.6984 -0.793967 -0.65232
lowerback 26.2489 0.276974 0.266558
upperback 3.96729 0.45968 0.305594
thorax -10.1726 0.207394 0.0320303
lowerneck -6.42367 -8.04679 -6.86949
upperneck -1.13097 -10.4385 9.08641
head 1.70455 -5.10465 3.76189
rclavicle 1.59028e-015 1.78906e-015
rhumerus 2.96605 29.761 -70.6977
rradius 41.5356
rwrist 11.0244
rhand -30.33 -37.5993
rfingers 7.12502
rthumb -3.63618 -67.548
lclavicle 1.59028e-015 1.78906e-015
lhumerus 8.97461 -20.4658 77.297
lradius 37.9317
lwrist -18.8157
lhand -22.8645 -47.5408
lfingers 7.12502
lthumb 3.57398 -17.591
rfemur -26.0753 1.18854 13.1701
rtibia 12.5606
rfoot -19.5915 -14.9425
rtoes -4.8763
lfemur -36.4589 0.416766 -12.9303
ltibia 28.7543
lfoot -16.5168 8.76731
ltoes -55.7926
